<mxGraphModel dx="1426" dy="745" grid="1" gridSize="10" guides="1" tooltips="1" connect="1" arrows="1" fold="1" page="1" pageScale="1" pageWidth="827" pageHeight="1169" math="0" shadow="0">
  <root>
    <mxCell id="0"/>
    <mxCell id="1" parent="0"/>
    <mxCell id="6b0c9d97c6c02063-1" value="" style="rounded=0;whiteSpace=wrap;html=1;labelBackgroundColor=none;fillColor=#ffffff;fontSize=12;strokeColor=#000000;" parent="1" vertex="1">
      <mxGeometry x="10" y="10" width="810" height="1150" as="geometry"/>
    </mxCell>
    <mxCell id="6b0c9d97c6c02063-2" value="FFB SCANNER ANALYSIS SYSTEM" style="text;html=1;strokeColor=none;fillColor=none;align=center;verticalAlign=middle;whiteSpace=wrap;rounded=0;labelBackgroundColor=none;fontSize=24;fontStyle=1" parent="1" vertex="1">
      <mxGeometry x="160" y="20" width="510" height="60" as="geometry"/>
    </mxCell>
    <mxCell id="6b0c9d97c6c02063-3" value="Multi-Estate Monitoring System" style="text;html=1;strokeColor=none;fillColor=none;align=center;verticalAlign=middle;whiteSpace=wrap;rounded=0;labelBackgroundColor=none;fontSize=14;fontStyle=0" parent="1" vertex="1">
      <mxGeometry x="160" y="80" width="510" height="20" as="geometry"/>
    </mxCell>
    <mxCell id="6b0c9d97c6c02063-4" value="" style="rounded=0;whiteSpace=wrap;html=1;labelBackgroundColor=none;fillColor=#ffffff;fontSize=12;strokeColor=#000000;" parent="1" vertex="1">
      <mxGeometry x="30" y="120" width="240" height="200" as="geometry"/>
    </mxCell>
    <mxCell id="6b0c9d97c6c02063-5" value="GUI Layer" style="text;html=1;strokeColor=none;fillColor=none;align=center;verticalAlign=middle;whiteSpace=wrap;rounded=0;labelBackgroundColor=none;fontSize=16;fontStyle=1" parent="1" vertex="1">
      <mxGeometry x="40" y="130" width="220" height="30" as="geometry"/>
    </mxCell>
    <mxCell id="6b0c9d97c6c02063-6" value="• Multi-Estate Selection" style="text;html=1;strokeColor=none;fillColor=none;align=left;verticalAlign=middle;whiteSpace=wrap;rounded=0;labelBackgroundColor=none;fontSize=12;fontStyle=0" parent="1" vertex="1">
      <mxGeometry x="50" y="160" width="140" height="20" as="geometry"/>
    </mxCell>
    <mxCell id="6b0c9d97c6c02063-7" value="• Date Range" style="text;html=1;strokeColor=none;fillColor=none;align=left;verticalAlign=middle;whiteSpace=wrap;rounded=0;labelBackgroundColor=none;fontSize=12;fontStyle=0" parent="1" vertex="1">
      <mxGeometry x="50" y="180" width="140" height="20" as="geometry"/>
    </mxCell>
    <mxCell id="6b0c9d97c6c02063-8" value="• Progress Bar" style="text;html=1;strokeColor=none;fillColor=none;align=left;verticalAlign=middle;whiteSpace=wrap;rounded=0;labelBackgroundColor=none;fontSize=12;fontStyle=0" parent="1" vertex="1">
      <mxGeometry x="50" y="200" width="140" height="20" as="geometry"/>
    </mxCell>
    <mxCell id="6b0c9d97c6c02063-9" value="• PDF Export" style="text;html=1;strokeColor=none;fillColor=none;align=left;verticalAlign=middle;whiteSpace=wrap;rounded=0;labelBackgroundColor=none;fontSize=12;fontStyle=0" parent="1" vertex="1">
      <mxGeometry x="50" y="220" width="140" height="20" as="geometry"/>
    </mxCell>
    <mxCell id="6b0c9d97c6c02063-10" value="" style="rounded=0;whiteSpace=wrap;html=1;labelBackgroundColor=none;fillColor=#ffffff;fontSize=12;strokeColor=#000000;" parent="1" vertex="1">
      <mxGeometry x="290" y="120" width="240" height="200" as="geometry"/>
    </mxCell>
    <mxCell id="6b0c9d97c6c02063-11" value="Analysis Layer" style="text;html=1;strokeColor=none;fillColor=none;align=center;verticalAlign=middle;whiteSpace=wrap;rounded=0;labelBackgroundColor=none;fontSize=16;fontStyle=1" parent="1" vertex="1">
      <mxGeometry x="300" y="130" width="220" height="30" as="geometry"/>
    </mxCell>
    <mxCell id="6b0c9d97c6c02063-12" value="• Transaction Analysis" style="text;html=1;strokeColor=none;fillColor=none;align=left;verticalAlign=middle;whiteSpace=wrap;rounded=0;labelBackgroundColor=none;fontSize=12;fontStyle=0" parent="1" vertex="1">
      <mxGeometry x="310" y="160" width="140" height="20" as="geometry"/>
    </mxCell>
    <mxCell id="6b0c9d97c6c02063-13" value="• Verification Logic" style="text;html=1;strokeColor=none;fillColor=none;align=left;verticalAlign=middle;whiteSpace=wrap;rounded=0;labelBackgroundColor=none;fontSize=12;fontStyle=0" parent="1" vertex="1">
      <mxGeometry x="310" y="180" width="140" height="20" as="geometry"/>
    </mxCell>
    <mxCell id="6b0c9d97c6c02063-14" value="• Employee Performance" style="text;html=1;strokeColor=none;fillColor=none;align=left;verticalAlign=middle;whiteSpace=wrap;rounded=0;labelBackgroundColor=none;fontSize=12;fontStyle=0" parent="1" vertex="1">
      <mxGeometry x="310" y="200" width="150" height="20" as="geometry"/>
    </mxCell>
    <mxCell id="6b0c9d97c6c02063-15" value="" style="rounded=0;whiteSpace=wrap;html=1;labelBackgroundColor=none;fillColor=#ffffff;fontSize=12;strokeColor=#000000;" parent="1" vertex="1">
      <mxGeometry x="550" y="120" width="240" height="200" as="geometry"/>
    </mxCell>
    <mxCell id="6b0c9d97c6c02063-16" value="Database Layer" style="text;html=1;strokeColor=none;fillColor=none;align=center;verticalAlign=middle;whiteSpace=wrap;rounded=0;labelBackgroundColor=none;fontSize=16;fontStyle=1" parent="1" vertex="1">
      <mxGeometry x="560" y="130" width="220" height="30" as="geometry"/>
    </mxCell>
    <mxCell id="6b0c9d97c6c02063-17" value="• Firebird DB" style="text;html=1;strokeColor=none;fillColor=none;align=left;verticalAlign=middle;whiteSpace=wrap;rounded=0;labelBackgroundColor=none;fontSize=12;fontStyle=0" parent="1" vertex="1">
      <mxGeometry x="570" y="160" width="140" height="20" as="geometry"/>
    </mxCell>
    <mxCell id="6b0c9d97c6c02063-18" value="• Monthly Tables" style="text;html=1;strokeColor=none;fillColor=none;align=left;verticalAlign=middle;whiteSpace=wrap;rounded=0;labelBackgroundColor=none;fontSize=12;fontStyle=0" parent="1" vertex="1">
      <mxGeometry x="570" y="180" width="140" height="20" as="geometry"/>
    </mxCell>
    <mxCell id="6b0c9d97c6c02063-19" value="• Reference Tables" style="text;html=1;strokeColor=none;fillColor=none;align=left;verticalAlign=middle;whiteSpace=wrap;rounded=0;labelBackgroundColor=none;fontSize=12;fontStyle=0" parent="1" vertex="1">
      <mxGeometry x="570" y="200" width="140" height="20" as="geometry"/>
    </mxCell>
    <mxCell id="6b0c9d97c6c02063-20" value="" style="endArrow=classic;html=1;fontSize=12;entryX=0;entryY=0.5;exitX=1;exitY=0.5;" parent="1" source="6b0c9d97c6c02063-4" target="6b0c9d97c6c02063-10" edge="1">
      <mxGeometry width="50" height="50" relative="1" as="geometry">
        <mxPoint x="290" y="220" as="sourcePoint"/>
        <mxPoint x="340" y="170" as="targetPoint"/>
      </mxGeometry>
    </mxCell>
    <mxCell id="6b0c9d97c6c02063-21" value="" style="endArrow=classic;html=1;fontSize=12;entryX=0;entryY=0.5;exitX=1;exitY=0.5;" parent="1" source="6b0c9d97c6c02063-10" target="6b0c9d97c6c02063-15" edge="1">
      <mxGeometry width="50" height="50" relative="1" as="geometry">
        <mxPoint x="550" y="230" as="sourcePoint"/>
        <mxPoint x="600" y="180" as="targetPoint"/>
      </mxGeometry>
    </mxCell>
    <mxCell id="6b0c9d97c6c02063-22" value="" style="endArrow=classic;html=1;fontSize=12;entryX=0.25;entryY=1;exitX=0.25;exitY=0;" parent="1" source="6b0c9d97c6c02063-10" target="6b0c9d97c6c02063-34" edge="1">
      <mxGeometry width="50" height="50" relative="1" as="geometry">
        <mxPoint x="340" y="340" as="sourcePoint"/>
        <mxPoint x="390" y="290" as="targetPoint"/>
      </mxGeometry>
    </mxCell>
    <mxCell id="6b0c9d97c6c02063-23" value="" style="endArrow=classic;html=1;fontSize=12;entryX=0.75;entryY=1;exitX=0.75;exitY=0;" parent="1" source="6b0c9d97c6c02063-10" target="6b0c9d97c6c02063-34" edge="1">
      <mxGeometry width="50" height="50" relative="1" as="geometry">
        <mxPoint x="490" y="340" as="sourcePoint"/>
        <mxPoint x="540" y="290" as="targetPoint"/>
      </mxGeometry>
    </mxCell>
    <mxCell id="6b0c9d97c6c02063-24" value="" style="rounded=0;whiteSpace=wrap;html=1;labelBackgroundColor=none;fillColor=#ffffff;fontSize=12;strokeColor=#000000;" parent="1" vertex="1">
      <mxGeometry x="290" y="340" width="240" height="130" as="geometry"/>
    </mxCell>
    <mxCell id="6b0c9d97c6c02063-25" value="Report Generation" style="text;html=1;strokeColor=none;fillColor=none;align=center;verticalAlign=middle;whiteSpace=wrap;rounded=0;labelBackgroundColor=none;fontSize=16;fontStyle=1" parent="1" vertex="1">
      <mxGeometry x="300" y="350" width="220" height="30" as="geometry"/>
    </mxCell>
    <mxCell id="6b0c9d97c6c02063-26" value="• PDF Reports (Professional)" style="text;html=1;strokeColor=none;fillColor=none;align=left;verticalAlign=middle;whiteSpace=wrap;rounded=0;labelBackgroundColor=none;fontSize=12;fontStyle=0" parent="1" vertex="1">
      <mxGeometry x="310" y="380" width="180" height="20" as="geometry"/>
    </mxCell>
    <mxCell id="6b0c9d97c6c02063-27" value="• Excel Reports (Legacy)" style="text;html=1;strokeColor=none;fillColor=none;align=left;verticalAlign=middle;whiteSpace=wrap;rounded=0;labelBackgroundColor=none;fontSize=12;fontStyle=0" parent="1" vertex="1">
      <mxGeometry x="310" y="400" width="140" height="20" as="geometry"/>
    </mxCell>
    <mxCell id="6b0c9d97c6c02063-28" value="• Multi-Estate Summaries" style="text;html=1;strokeColor=none;fillColor=none;align=left;verticalAlign=middle;whiteSpace=wrap;rounded=0;labelBackgroundColor=none;fontSize=12;fontStyle=0" parent="1" vertex="1">
      <mxGeometry x="310" y="420" width="160" height="20" as="geometry"/>
    </mxCell>
    <mxCell id="6b0c9d97c6c02063-29" value="• Employee Performance Metrics" style="text;html=1;strokeColor=none;fillColor=none;align=left;verticalAlign=middle;whiteSpace=wrap;rounded=0;labelBackgroundColor=none;fontSize=12;fontStyle=0" parent="1" vertex="1">
      <mxGeometry x="310" y="440" width="200" height="20" as="geometry"/>
    </mxCell>
    <mxCell id="6b0c9d97c6c02063-30" value="User Input" style="rounded=0;whiteSpace=wrap;html=1;labelBackgroundColor=none;fillColor=none;fontSize=14;fontStyle=1;strokeColor=#000000;" parent="1" vertex="1">
      <mxGeometry x="30" y="520" width="120" height="40" as="geometry"/>
    </mxCell>
    <mxCell id="6b0c9d97c6c02063-31" value="GUI Application" style="rounded=0;whiteSpace=wrap;html=1;labelBackgroundColor=none;fillColor=none;fontSize=14;fontStyle=1;strokeColor=#000000;" parent="1" vertex="1">
      <mxGeometry x="180" y="520" width="120" height="40" as="geometry"/>
    </mxCell>
    <mxCell id="6b0c9d97c6c02063-32" value="Analysis Engine" style="rounded=0;whiteSpace=wrap;html=1;labelBackgroundColor=none;fillColor=none;fontSize=14;fontStyle=1;strokeColor=#000000;" parent="1" vertex="1">
      <mxGeometry x="330" y="520" width="120" height="40" as="geometry"/>
    </mxCell>
    <mxCell id="6b0c9d97c6c02063-33" value="Database Query" style="rounded=0;whiteSpace=wrap;html=1;labelBackgroundColor=none;fillColor=none;fontSize=14;fontStyle=1;strokeColor=#000000;" parent="1" vertex="1">
      <mxGeometry x="480" y="520" width="120" height="40" as="geometry"/>
    </mxCell>
    <mxCell id="6b0c9d97c6c02063-34" value="User Views Results" style="rounded=0;whiteSpace=wrap;html=1;labelBackgroundColor=none;fillColor=none;fontSize=14;fontStyle=1;strokeColor=#000000;" parent="1" vertex="1">
      <mxGeometry x="30" y="490" width="120" height="20" as="geometry"/>
    </mxCell>
    <mxCell id="6b0c9d97c6c02063-35" value="Display UI Progress &amp;amp; Results" style="rounded=0;whiteSpace=wrap;html=1;labelBackgroundColor=none;fillColor=none;fontSize=14;fontStyle=1;strokeColor=#000000;" parent="1" vertex="1">
      <mxGeometry x="330" y="610" width="120" height="40" as="geometry"/>
    </mxCell>
    <mxCell id="6b0c9d97c6c02063-36" value="PDF/Excel Reports Export" style="rounded=0;whiteSpace=wrap;html=1;labelBackgroundColor=none;fillColor=none;fontSize=14;fontStyle=1;strokeColor=#000000;" parent="1" vertex="1">
      <mxGeometry x="480" y="610" width="120" height="40" as="geometry"/>
    </mxCell>
    <mxCell id="6b0c9d97c6c02063-37" value="Analysis Results" style="rounded=0;whiteSpace=wrap;html=1;labelBackgroundColor=none;fillColor=none;fontSize=14;fontStyle=1;strokeColor=#000000;" parent="1" vertex="1">
      <mxGeometry x="180" y="610" width="120" height="40" as="geometry"/>
    </mxCell>
    <mxCell id="6b0c9d97c6c02063-38" value="" style="endArrow=classic;html=1;fontSize=12;exitX=1;exitY=0.5;entryX=0;entryY=0.5;" parent="1" source="6b0c9d97c6c02063-30" target="6b0c9d97c6c02063-31" edge="1">
      <mxGeometry width="50" height="50" relative="1" as="geometry">
        <mxPoint x="160" y="550" as="sourcePoint"/>
        <mxPoint x="210" y="500" as="targetPoint"/>
      </mxGeometry>
    </mxCell>
    <mxCell id="6b0c9d97c6c02063-39" value="" style="endArrow=classic;html=1;fontSize=12;exitX=1;exitY=0.5;entryX=0;entryY=0.5;" parent="1" source="6b0c9d97c6c02063-31" target="6b0c9d97c6c02063-32" edge="1">
      <mxGeometry width="50" height="50" relative="1" as="geometry">
        <mxPoint x="310" y="550" as="sourcePoint"/>
        <mxPoint x="360" y="500" as="targetPoint"/>
      </mxGeometry>
    </mxCell>
    <mxCell id="6b0c9d97c6c02063-40" value="" style="endArrow=classic;html=1;fontSize=12;exitX=1;exitY=0.5;entryX=0;entryY=0.5;" parent="1" source="6b0c9d97c6c02063-32" target="6b0c9d97c6c02063-33" edge="1">
      <mxGeometry width="50" height="50" relative="1" as="geometry">
        <mxPoint x="460" y="550" as="sourcePoint"/>
        <mxPoint x="510" y="500" as="targetPoint"/>
      </mxGeometry>
    </mxCell>
    <mxCell id="6b0c9d97c6c02063-41" value="" style="endArrow=classic;html=1;fontSize=12;exitX=0.25;exitY=1;entryX=0.5;entryY=0;" parent="1" source="6b0c9d97c6c02063-32" target="6b0c9d97c6c02063-37" edge="1">
      <mxGeometry width="50" height="50" relative="1" as="geometry">
        <mxPoint x="350" y="570" as="sourcePoint"/>
        <mxPoint x="250" y="600" as="targetPoint"/>
      </mxGeometry>
    </mxCell>
    <mxCell id="6b0c9d97c6c02063-42" value="" style="endArrow=classic;html=1;fontSize=12;exitX=0.75;exitY=1;entryX=0.5;entryY=0;" parent="1" source="6b0c9d97c6c02063-32" target="6b0c9d97c6c02063-35" edge="1">
      <mxGeometry width="50" height="50" relative="1" as="geometry">
        <mxPoint x="410" y="570" as="sourcePoint"/>
        <mxPoint x="340" y="610" as="targetPoint"/>
      </mxGeometry>
    </mxCell>
    <mxCell id="6b0c9d97c6c02063-43" value="" style="endArrow=classic;html=1;fontSize=12;exitX=0.75;exitY=1;entryX=0.5;entryY=0;" parent="1" source="6b0c9d97c6c02063-33" target="6b0c9d97c6c02063-36" edge="1">
      <mxGeometry width="50" height="50" relative="1" as="geometry">
        <mxPoint x="560" y="570" as="sourcePoint"/>
        <mxPoint x="470" y="610" as="targetPoint"/>
      </mxGeometry>
    </mxCell>
    <mxCell id="6b0c9d97c6c02063-44" value="" style="endArrow=classic;html=1;fontSize=12;exitX=0.25;exitY=1;entryX=0.5;entryY=0;" parent="1" source="6b0c9d97c6c02063-37" target="6b0c9d97c6c02063-34" edge="1">
      <mxGeometry width="50" height="50" relative="1" as="geometry">
        <mxPoint x="80" y="670" as="sourcePoint"/>
        <mxPoint x="130" y="620" as="targetPoint"/>
      </mxGeometry>
    </mxCell>
    <mxCell id="6b0c9d97c6c02063-45" value="" style="endArrow=classic;html=1;fontSize=12;exitX=0.5;exitY=1;entryX=0.5;entryY=0;" parent="1" source="6b0c9d97c6c02063-35" target="6b0c9d97c6c02063-34" edge="1">
      <mxGeometry width="50" height="50" relative="1" as="geometry">
        <mxPoint x="230" y="670" as="sourcePoint"/>
        <mxPoint x="280" y="620" as="targetPoint"/>
      </mxGeometry>
    </mxCell>
    <mxCell id="6b0c9d97c6c02063-46" value="" style="endArrow=classic;html=1;fontSize=12;exitX=0.75;exitY=1;entryX=0.5;entryY=0;" parent="1" source="6b0c9d97c6c02063-36" target="6b0c9d97c6c02063-34" edge="1">
      <mxGeometry width="50" height="50" relative="1" as="geometry">
        <mxPoint x="410" y="670" as="sourcePoint"/>
        <mxPoint x="340" y="510" as="targetPoint"/>
      </mxGeometry>
    </mxCell>
    <mxCell id="6b0c9d97c6c02063-47" value="FFBSCANNERDATA01" style="rounded=0;whiteSpace=wrap;html=1;labelBackgroundColor=none;fillColor=none;fontSize=14;fontStyle=1;strokeColor=#000000;" parent="1" vertex="1">
      <mxGeometry x="630" y="520" width="120" height="40" as="geometry"/>
    </mxCell>
    <mxCell id="6b0c9d97c6c02063-48" value="FFBSCANNERDATA02" style="rounded=0;whiteSpace=wrap;html=1;labelBackgroundColor=none;fillColor=none;fontSize=14;fontStyle=1;strokeColor=#000000;" parent="1" vertex="1">
      <mxGeometry x="630" y="570" width="120" height="40" as="geometry"/>
    </mxCell>
    <mxCell id="6b0c9d97c6c02063-49" value="FFBSCANNERDATA12" style="rounded=0;whiteSpace=wrap;html=1;labelBackgroundColor=none;fillColor=none;fontSize=14;fontStyle=1;strokeColor=#000000;" parent="1" vertex="1">
      <mxGeometry x="630" y="620" width="120" height="40" as="geometry"/>
    </mxCell>
    <mxCell id="6b0c9d97c6c02063-50" value="EMP (Employee Data)" style="rounded=0;whiteSpace=wrap;html=1;labelBackgroundColor=none;fillColor=none;fontSize=14;fontStyle=1;strokeColor=#000000;" parent="1" vertex="1">
      <mxGeometry x="630" y="680" width="120" height="40" as="geometry"/>
    </mxCell>
    <mxCell id="6b0c9d97c6c02063-51" value="OCFIELD (Field Info)" style="rounded=0;whiteSpace=wrap;html=1;labelBackgroundColor=none;fillColor=none;fontSize=14;fontStyle=1;strokeColor=#000000;" parent="1" vertex="1">
      <mxGeometry x="630" y="730" width="120" height="40" as="geometry"/>
    </mxCell>
    <mxCell id="6b0c9d97c6c02063-52" value="CRDIVISION (Division Info)" style="rounded=0;whiteSpace=wrap;html=1;labelBackgroundColor=none;fillColor=none;fontSize=14;fontStyle=1;strokeColor=#000000;" parent="1" vertex="1">
      <mxGeometry x="630" y="780" width="120" height="40" as="geometry"/>
    </mxCell>
    <mxCell id="6b0c9d97c6c02063-53" value="Firebird DB (Multiple Estates)" style="rounded=0;whiteSpace=wrap;html=1;labelBackgroundColor=none;fillColor=none;fontSize=14;fontStyle=1;strokeColor=#000000;" parent="1" vertex="1">
      <mxGeometry x="480" y="680" width="120" height="60" as="geometry"/>
    </mxCell>
    <mxCell id="6b0c9d97c6c02063-54" value="" style="endArrow=classic;html=1;fontSize=12;exitX=0;exitY=0.5;entryX=0.5;entryY=0;" parent="1" source="6b0c9d97c6c02063-47" target="6b0c9d97c6c02063-33" edge="1">
      <mxGeometry width="50" height="50" relative="1" as="geometry">
        <mxPoint x="600" y="540" as="sourcePoint"/>
        <mxPoint x="650" y="490" as="targetPoint"/>
      </mxGeometry>
    </mxCell>
    <mxCell id="6b0c9d97c6c02063-55" value="" style="endArrow=classic;html=1;fontSize=12;exitX=0;exitY=0.5;entryX=0.5;entryY=0;" parent="1" source="6b0c9d97c6c02063-48" target="6b0c9d97c6c02063-33" edge="1">
      <mxGeometry width="50" height="50" relative="1" as="geometry">
        <mxPoint x="650" y="580" as="sourcePoint"/>
        <mxPoint x="700" y="530" as="targetPoint"/>
      </mxGeometry>
    </mxCell>
    <mxCell id="6b0c9d97c6c02063-56" value="" style="endArrow=classic;html=1;fontSize=12;exitX=0;exitY=0.5;entryX=0.5;entryY=0;" parent="1" source="6b0c9d97c6c02063-49" target="6b0c9d97c6c02063-33" edge="1">
      <mxGeometry width="50" height="50" relative="1" as="geometry">
        <mxPoint x="610" y="630" as="sourcePoint"/>
        <mxPoint x="660" y="580" as="targetPoint"/>
      </mxGeometry>
    </mxCell>
    <mxCell id="6b0c9d97c6c02063-57" value="" style="endArrow=classic;html=1;fontSize=12;exitX=0;exitY=0.5;entryX=0.5;entryY=0;" parent="1" source="6b0c9d97c6c02063-50" target="6b0c9d97c6c02063-33" edge="1">
      <mxGeometry width="50" height="50" relative="1" as="geometry">
        <mxPoint x="600" y="700" as="sourcePoint"/>
        <mxPoint x="650" y="650" as="targetPoint"/>
      </mxGeometry>
    </mxCell>
    <mxCell id="6b0c9d97c6c02063-58" value="" style="endArrow=classic;html=1;fontSize=12;exitX=0;exitY=0.5;entryX=0.5;entryY=0;" parent="1" source="6b0c9d97c6c02063-51" target="6b0c9d97c6c02063-33" edge="1">
      <mxGeometry width="50" height="50" relative="1" as="geometry">
        <mxPoint x="590" y="750" as="sourcePoint"/>
        <mxPoint x="640" y="700" as="targetPoint"/>
      </mxGeometry>
    </mxCell>
    <mxCell id="6b0c9d97c6c02063-59" value="" style="endArrow=classic;html=1;fontSize=12;exitX=0;exitY=0.5;entryX=0.5;entryY=0;" parent="1" source="6b0c9d97c6c02063-52" target="6b0c9d97c6c02063-33" edge="1">
      <mxGeometry width="50" height="50" relative="1" as="geometry">
        <mxPoint x="580" y="800" as="sourcePoint"/>
        <mxPoint x="630" y="750" as="targetPoint"/>
      </mxGeometry>
    </mxCell>
    <mxCell id="6b0c9d97c6c02063-60" value="" style="endArrow=classic;html=1;fontSize=12;exitX=0;exitY=0.5;entryX=1;entryY=0.5;" parent="1" source="6b0c9d97c6c02063-53" target="6b0c9d97c6c02063-33" edge="1">
      <mxGeometry width="50" height="50" relative="1" as="geometry">
        <mxPoint x="610" y="710" as="sourcePoint"/>
        <mxPoint x="660" y="660" as="targetPoint"/>
      </mxGeometry>
    </mxCell>
    <mxCell id="6b0c9d97c6c02063-61" value="" style="rounded=0;whiteSpace=wrap;html=1;labelBackgroundColor=none;fillColor=none;fontSize=14;fontStyle=1;strokeColor=#000000;" parent="1" vertex="1">
      <mxGeometry x="30" y="730" width="120" height="40" as="geometry"/>
    </mxCell>
    <mxCell id="6b0c9d97c6c02063-62" value="PGE 1A" style="text;html=1;strokeColor=none;fillColor=none;align=center;verticalAlign=middle;whiteSpace=wrap;rounded=0;labelBackgroundColor=none;fontSize=12;fontStyle=1" parent="1" vertex="1">
      <mxGeometry x="40" y="740" width="100" height="20" as="geometry"/>
    </mxCell>
    <mxCell id="6b0c9d97c6c02063-63" value="" style="rounded=0;whiteSpace=wrap;html=1;labelBackgroundColor=none;fillColor=none;fontSize=14;fontStyle=1;strokeColor=#000000;" parent="1" vertex="1">
      <mxGeometry x="30" y="780" width="120" height="40" as="geometry"/>
    </mxCell>
    <mxCell id="6b0c9d97c6c02063-64" value="PGE 1B" style="text;html=1;strokeColor=none;fillColor=none;align=center;verticalAlign=middle;whiteSpace=wrap;rounded=0;labelBackgroundColor=none;fontSize=12;fontStyle=1" parent="1" vertex="1">
      <mxGeometry x="40" y="790" width="100" height="20" as="geometry"/>
    </mxCell>
    <mxCell id="6b0c9d97c6c02063-65" value="" style="rounded=0;whiteSpace=wrap;html=1;labelBackgroundColor=none;fillColor=none;fontSize=14;fontStyle=1;strokeColor=#000000;" parent="1" vertex="1">
      <mxGeometry x="30" y="830" width="120" height="40" as="geometry"/>
    </mxCell>
    <mxCell id="6b0c9d97c6c02063-66" value="PGE 2A" style="text;html=1;strokeColor=none;fillColor=none;align=center;verticalAlign=middle;whiteSpace=wrap;rounded=0;labelBackgroundColor=none;fontSize=12;fontStyle=1" parent="1" vertex="1">
      <mxGeometry x="40" y="840" width="100" height="20" as="geometry"/>
    </mxCell>
    <mxCell id="6b0c9d97c6c02063-67" value="" style="rounded=0;whiteSpace=wrap;html=1;labelBackgroundColor=none;fillColor=none;fontSize=14;fontStyle=1;strokeColor=#000000;" parent="1" vertex="1">
      <mxGeometry x="30" y="880" width="120" height="40" as="geometry"/>
    </mxCell>
    <mxCell id="6b0c9d97c6c02063-68" value="PGE 2B" style="text;html=1;strokeColor=none;fillColor=none;align=center;verticalAlign=middle;whiteSpace=wrap;rounded=0;labelBackgroundColor=none;fontSize=12;fontStyle=1" parent="1" vertex="1">
      <mxGeometry x="40" y="890" width="100" height="20" as="geometry"/>
    </mxCell>
    <mxCell id="6b0c9d97c6c02063-69" value="" style="rounded=0;whiteSpace=wrap;html=1;labelBackgroundColor=none;fillColor=none;fontSize=14;fontStyle=1;strokeColor=#000000;" parent="1" vertex="1">
      <mxGeometry x="160" y="730" width="120" height="40" as="geometry"/>
    </mxCell>
    <mxCell id="6b0c9d97c6c02063-70" value="IJL" style="text;html=1;strokeColor=none;fillColor=none;align=center;verticalAlign=middle;whiteSpace=wrap;rounded=0;labelBackgroundColor=none;fontSize=12;fontStyle=1" parent="1" vertex="1">
      <mxGeometry x="170" y="740" width="100" height="20" as="geometry"/>
    </mxCell>
    <mxCell id="6b0c9d97c6c02063-71" value="" style="rounded=0;whiteSpace=wrap;html=1;labelBackgroundColor=none;fillColor=none;fontSize=14;fontStyle=1;strokeColor=#000000;" parent="1" vertex="1">
      <mxGeometry x="160" y="780" width="120" height="40" as="geometry"/>
    </mxCell>
    <mxCell id="6b0c9d97c6c02063-72" value="DME" style="text;html=1;strokeColor=none;fillColor=none;align=center;verticalAlign=middle;whiteSpace=wrap;rounded=0;labelBackgroundColor=none;fontSize=12;fontStyle=1" parent="1" vertex="1">
      <mxGeometry x="170" y="790" width="100" height="20" as="geometry"/>
    </mxCell>
    <mxCell id="6b0c9d97c6c02063-73" value="" style="rounded=0;whiteSpace=wrap;html=1;labelBackgroundColor=none;fillColor=none;fontSize=14;fontStyle=1;strokeColor=#000000;" parent="1" vertex="1">
      <mxGeometry x="160" y="830" width="120" height="40" as="geometry"/>
    </mxCell>
    <mxCell id="6b0c9d97c6c02063-74" value="Are B2" style="text;html=1;strokeColor=none;fillColor=none;align=center;verticalAlign=middle;whiteSpace=wrap;rounded=0;labelBackgroundColor=none;fontSize=12;fontStyle=1" parent="1" vertex="1">
      <mxGeometry x="170" y="840" width="100" height="20" as="geometry"/>
    </mxCell>
    <mxCell id="6b0c9d97c6c02063-75" value="" style="rounded=0;whiteSpace=wrap;html=1;labelBackgroundColor=none;fillColor=none;fontSize=14;fontStyle=1;strokeColor=#000000;" parent="1" vertex="1">
      <mxGeometry x="160" y="880" width="120" height="40" as="geometry"/>
    </mxCell>
    <mxCell id="6b0c9d97c6c02063-76" value="Are B1" style="text;html=1;strokeColor=none;fillColor=none;align=center;verticalAlign=middle;whiteSpace=wrap;rounded=0;labelBackgroundColor=none;fontSize=12;fontStyle=1" parent="1" vertex="1">
      <mxGeometry x="170" y="890" width="100" height="20" as="geometry"/>
    </mxCell>
    <mxCell id="6b0c9d97c6c02063-77" value="" style="rounded=0;whiteSpace=wrap;html=1;labelBackgroundColor=none;fillColor=none;fontSize=14;fontStyle=1;strokeColor=#000000;" parent="1" vertex="1">
      <mxGeometry x="290" y="730" width="120" height="40" as="geometry"/>
    </mxCell>
    <mxCell id="6b0c9d97c6c02063-78" value="Are A" style="text;html=1;strokeColor=none;fillColor=none;align=center;verticalAlign=middle;whiteSpace=wrap;rounded=0;labelBackgroundColor=none;fontSize=12;fontStyle=1" parent="1" vertex="1">
      <mxGeometry x="300" y="740" width="100" height="20" as="geometry"/>
    </mxCell>
    <mxCell id="6b0c9d97c6c02063-79" value="" style="rounded=0;whiteSpace=wrap;html=1;labelBackgroundColor=none;fillColor=none;fontSize=14;fontStyle=1;strokeColor=#000000;" parent="1" vertex="1">
      <mxGeometry x="290" y="780" width="120" height="40" as="geometry"/>
    </mxCell>
    <mxCell id="6b0c9d97c6c02063-80" value="Are C" style="text;html=1;strokeColor=none;fillColor=none;align=center;verticalAlign=middle;whiteSpace=wrap;rounded=0;labelBackgroundColor=none;fontSize=12;fontStyle=1" parent="1" vertex="1">
      <mxGeometry x="300" y="790" width="100" height="20" as="geometry"/>
    </mxCell>
    <mxCell id="6b0c9d97c6c02063-81" value="config.json" style="rounded=0;whiteSpace=wrap;html=1;labelBackgroundColor=none;fillColor=none;fontSize=14;fontStyle=1;strokeColor=#000000;" parent="1" vertex="1">
      <mxGeometry x="30" y="940" width="120" height="40" as="geometry"/>
    </mxCell>
    <mxCell id="6b0c9d97c6c02063-82" value="" style="endArrow=classic;startArrow=classic;html=1;fontSize=12;exitX=0.5;exitY=0;entryX=0.5;entryY=1;" parent="1" source="6b0c9d97c6c02063-63" target="6b0c9d97c6c02063-61" edge="1">
      <mxGeometry width="50" height="50" relative="1" as="geometry">
        <mxPoint x="90" y="720" as="sourcePoint"/>
        <mxPoint x="140" y="670" as="targetPoint"/>
      </mxGeometry>
    </mxCell>
    <mxCell id="6b0c9d97c6c02063-83" value="" style="endArrow=classic;startArrow=classic;html=1;fontSize=12;exitX=0.5;exitY=0;entryX=0.5;entryY=1;" parent="1" source="6b0c9d97c6c02063-65" target="6b0c9d97c6c02063-63" edge="1">
      <mxGeometry width="50" height="50" relative="1" as="geometry">
        <mxPoint x="90" y="720" as="sourcePoint"/>
        <mxPoint x="140" y="670" as="targetPoint"/>
      </mxGeometry>
    </mxCell>
    <mxCell id="6b0c9d97c6c02063-84" value="" style="endArrow=classic;startArrow=classic;html=1;fontSize=12;exitX=0.5;exitY=0;entryX=0.5;entryY=1;" parent="1" source="6b0c9d97c6c02063-67" target="6b0c9d97c6c02063-65" edge="1">
      <mxGeometry width="50" height="50" relative="1" as="geometry">
        <mxPoint x="90" y="720" as="sourcePoint"/>
        <mxPoint x="140" y="670" as="targetPoint"/>
      </mxGeometry>
    </mxCell>
    <mxCell id="6b0c9d97c6c02063-85" value="" style="endArrow=classic;startArrow=classic;html=1;fontSize=12;exitX=0.5;exitY=0;entryX=0.5;entryY=1;" parent="1" source="6b0c9d97c6c02063-71" target="6b0c9d97c6c02063-69" edge="1">
      <mxGeometry width="50" height="50" relative="1" as="geometry">
        <mxPoint x="100" y="720" as="sourcePoint"/>
        <mxPoint x="150" y="670" as="targetPoint"/>
      </mxGeometry>
    </mxCell>
    <mxCell id="6b0c9d97c6c02063-86" value="" style="endArrow=classic;startArrow=classic;html=1;fontSize=12;exitX=0.5;exitY=0;entryX=0.5;entryY=1;" parent="1" source="6b0c9d97c6c02063-73" target="6b0c9d97c6c02063-71" edge="1">
      <mxGeometry width="50" height="50" relative="1" as="geometry">
        <mxPoint x="110" y="720" as="sourcePoint"/>
        <mxPoint x="160" y="670" as="targetPoint"/>
      </mxGeometry>
    </mxCell>
    <mxCell id="6b0c9d97c6c02063-87" value="" style="endArrow=classic;startArrow=classic;html=1;fontSize=12;exitX=0.5;exitY=0;entryX=0.5;entryY=1;" parent="1" source="6b0c9d97c6c02063-75" target="6b0c9d97c6c02063-73" edge="1">
      <mxGeometry width="50" height="50" relative="1" as="geometry">
        <mxPoint x="120" y="720" as="sourcePoint"/>
        <mxPoint x="170" y="670" as="targetPoint"/>
      </mxGeometry>
    </mxCell>
    <mxCell id="6b0c9d97c6c02063-88" value="" style="endArrow=classic;startArrow=classic;html=1;fontSize=12;exitX=0.5;exitY=0;entryX=0.5;entryY=1;" parent="1" source="6b0c9d97c6c02063-79" target="6b0c9d97c6c02063-77" edge="1">
      <mxGeometry width="50" height="50" relative="1" as="geometry">
        <mxPoint x="130" y="720" as="sourcePoint"/>
        <mxPoint x="180" y="670" as="targetPoint"/>
      </mxGeometry>
    </mxCell>
    <mxCell id="6b0c9d97c6c02063-89" value="" style="endArrow=classic;startArrow=classic;html=1;fontSize=12;exitX=0.5;exitY=0;entryX=0.5;entryY=1;" parent="1" source="6b0c9d97c6c02063-81" target="6b0c9d97c6c02063-79" edge="1">
      <mxGeometry width="50" height="50" relative="1" as="geometry">
        <mxPoint x="140" y="720" as="sourcePoint"/>
        <mxPoint x="190" y="670" as="targetPoint"/>
      </mxGeometry>
    </mxCell>
    <mxCell id="6b0c9d97c6c02063-90" value="Estate Configuration" style="text;html=1;strokeColor=none;fillColor=none;align=center;verticalAlign=middle;whiteSpace=wrap;rounded=0;labelBackgroundColor=none;fontSize=14;fontStyle=1" parent="1" vertex="1">
      <mxGeometry x="30" y="680" width="120" height="40" as="geometry"/>
    </mxCell>
    <mxCell id="6b0c9d97c6c02063-91" value="" style="endArrow=classic;startArrow=classic;html=1;fontSize=12;exitX=0.5;exitY=0;entryX=0.5;entryY=1;" parent="1" source="6b0c9d97c6c02063-69" target="6b0c9d97c6c02063-61" edge="1">
      <mxGeometry width="50" height="50" relative="1" as="geometry">
        <mxPoint x="220" y="730" as="sourcePoint"/>
        <mxPoint x="90" y="730" as="targetPoint"/>
      </mxGeometry>
    </mxCell>
    <mxCell id="6b0c9d97c6c02063-92" value="" style="endArrow=classic;startArrow=classic;html=1;fontSize=12;exitX=0.5;exitY=0;entryX=0.5;entryY=1;" parent="1" source="6b0c9d97c6c02063-77" target="6b0c9d97c6c02063-75" edge="1">
      <mxGeometry width="50" height="50" relative="1" as="geometry">
        <mxPoint x="220" y="730" as="sourcePoint"/>
        <mxPoint x="90" y="730" as="targetPoint"/>
      </mxGeometry>
    </mxCell>
    <mxCell id="6b0c9d97c6c02063-93" value="" style="endArrow=classic;startArrow=classic;html=1;fontSize=12;entryX=0.5;entryY=1;exitX=0.5;exitY=0;" parent="1" source="6b0c9d97c6c02063-80" target="6b0c9d97c6c02063-77" edge="1">
      <mxGeometry width="50" height="50" relative="1" as="geometry">
        <mxPoint x="220" y="800" as="sourcePoint"/>
        <mxPoint x="270" y="750" as="targetPoint"/>
      </mxGeometry>
    </mxCell>
    <mxCell id="6b0c9d97c6c02063-94" value="" style="endArrow=classic;startArrow=classic;html=1;fontSize=12;exitX=0.5;exitY=0;entryX=0.5;entryY=1;" parent="1" source="6b0c9d97c6c02063-72" target="6b0c9d97c6c02063-71" edge="1">
      <mxGeometry width="50" height="50" relative="1" as="geometry">
        <mxPoint x="220" y="730" as="sourcePoint"/>
        <mxPoint x="90" y="730" as="targetPoint"/>
      </mxGeometry>
    </mxCell>
    <mxCell id="6b0c9d97c6c02063-95" value="" style="endArrow=classic;startArrow=classic;html=1;fontSize=12;exitX=0.5;exitY=0;entryX=0.5;entryY=1;" parent="1" source="6b0c9d97c6c02063-74" target="6b0c9d97c6c02063-73" edge="1">
      <mxGeometry width="50" height="50" relative="1" as="geometry">
        <mxPoint x="220" y="730" as="sourcePoint"/>
        <mxPoint x="90" y="730" as="targetPoint"/>
      </mxGeometry>
    </mxCell>
    <mxCell id="6b0c9d97c6c02063-96" value="" style="endArrow=classic;startArrow=classic;html=1;fontSize=12;exitX=0.5;exitY=0;entryX=0.5;entryY=1;" parent="1" source="6b0c9d97c6c02063-76" target="6b0c9d97c6c02063-75" edge="1">
      <mxGeometry width="50" height="50" relative="1" as="geometry">
        <mxPoint x="220" y="730" as="sourcePoint"/>
        <mxPoint x="90" y="730" as="targetPoint"/>
      </mxGeometry>
    </mxCell>
    <mxCell id="6b0c9d97c6c02063-97" value="" style="endArrow=classic;startArrow=classic;html=1;fontSize=12;exitX=0.5;exitY=0;entryX=0.5;entryY=1;" parent="1" source="6b0c9d97c6c02063-78" target="6b0c9d97c6c02063-77" edge="1">
      <mxGeometry width="50" height="50" relative="1" as="geometry">
        <mxPoint x="220" y="730" as="sourcePoint"/>
        <mxPoint x="90" y="730" as="targetPoint"/>
      </mxGeometry>
    </mxCell>
    <mxCell id="6b0c9d97c6c02063-98" value="" style="endArrow=classic;html=1;fontSize=12;exitX=0.5;exitY=0;entryX=0.5;entryY=1;" parent="1" source="6b0c9d97c6c02063-81" target="6b0c9d97c6c02063-80" edge="1">
      <mxGeometry width="50" height="50" relative="1" as="geometry">
        <mxPoint x="90" y="670" as="sourcePoint"/>
        <mxPoint x="140" y="620" as="targetPoint"/>
        <Array as="points">
          <mxPoint x="90" y="700"/>
        </Array>
      </mxGeometry>
    </mxCell>
    <mxCell id="6b0c9d97c6c02063-99" value="Multi-Estate Configuration Database Paths" style="text;html=1;strokeColor=none;fillColor=none;align=center;verticalAlign=middle;whiteSpace=wrap;rounded=0;labelBackgroundColor=none;fontSize=14;fontStyle=1" parent="1" vertex="1">
      <mxGeometry x="100" y="640" width="240" height="40" as="geometry"/>
    </mxCell>
    <mxCell id="6b0c9d97c6c02063-100" value="gui_multi_estate_ffb_analysis.py" style="rounded=0;whiteSpace=wrap;html=1;labelBackgroundColor=none;fillColor=none;fontSize=14;fontStyle=1;strokeColor=#000000;" parent="1" vertex="1">
      <mxGeometry x="30" y="1020" width="160" height="40" as="geometry"/>
    </mxCell>
    <mxCell id="6b0c9d97c6c02063-101" value="firebird_connector.py" style="rounded=0;whiteSpace=wrap;html=1;labelBackgroundColor=none;fillColor=none;fontSize=14;fontStyle=1;strokeColor=#000000;" parent="1" vertex="1">
      <mxGeometry x="210" y="1020" width="160" height="40" as="geometry"/>
    </mxCell>
    <mxCell id="6b0c9d97c6c02063-102" value="analisis_per_karyawan.py" style="rounded=0;whiteSpace=wrap;html=1;labelBackgroundColor=none;fillColor=none;fontSize=14;fontStyle=1;strokeColor=#000000;" parent="1" vertex="1">
      <mxGeometry x="390" y="1020" width="160" height="40" as="geometry"/>
    </mxCell>
    <mxCell id="6b0c9d97c6c02063-103" value="analisis_detail_kerani.py" style="rounded=0;whiteSpace=wrap;html=1;labelBackgroundColor=none;fillColor=none;fontSize=14;fontStyle=1;strokeColor=#000000;" parent="1" vertex="1">
      <mxGeometry x="550" y="1020" width="160" height="40" as="geometry"/>
    </mxCell>
    <mxCell id="6b0c9d97c6c02063-104" value="ffb_pdf_report_generator.py" style="rounded=0;whiteSpace=wrap;html=1;labelBackgroundColor=none;fillColor=none;fontSize=14;fontStyle=1;strokeColor=#000000;" parent="1" vertex="1">
      <mxGeometry x="30" y="1080" width="160" height="40" as="geometry"/>
    </mxCell>
    <mxCell id="6b0c9d97c6c02063-105" value="" style="endArrow=classic;startArrow=classic;html=1;fontSize=12;entryX=0;entryY=0.5;exitX=1;exitY=0.5;" parent="1" source="6b0c9d97c6c02063-100" target="6b0c9d97c6c02063-101" edge="1">
      <mxGeometry width="50" height="50" relative="1" as="geometry">
        <mxPoint x="190" y="1040" as="sourcePoint"/>
        <mxPoint x="240" y="990" as="targetPoint"/>
      </mxGeometry>
    </mxCell>
    <mxCell id="6b0c9d97c6c02063-106" value="" style="endArrow=classic;startArrow=classic;html=1;fontSize=12;entryX=0;entryY=0.5;exitX=1;exitY=0.5;" parent="1" source="6b0c9d97c6c02063-101" target="6b0c9d97c6c02063-102" edge="1">
      <mxGeometry width="50" height="50" relative="1" as="geometry">
        <mxPoint x="370" y="1040" as="sourcePoint"/>
        <mxPoint x="420" y="990" as="targetPoint"/>
      </mxGeometry>
    </mxCell>
    <mxCell id="6b0c9d97c6c02063-107" value="" style="endArrow=classic;startArrow=classic;html=1;fontSize=12;entryX=0;entryY=0.5;exitX=1;exitY=0.5;" parent="1" source="6b0c9d97c6c02063-102" target="6b0c9d97c6c02063-103" edge="1">
      <mxGeometry width="50" height="50" relative="1" as="geometry">
        <mxPoint x="550" y="1040" as="sourcePoint"/>
        <mxPoint x="600" y="990" as="targetPoint"/>
      </mxGeometry>
    </mxCell>
    <mxCell id="6b0c9d97c6c02063-108" value="" style="endArrow=classic;startArrow=classic;html=1;fontSize=12;entryX=0.5;entryY=1;exitX=0.5;exitY=0;" parent="1" source="6b0c9d97c6c02063-104" target="6b0c9d97c6c02063-100" edge="1">
      <mxGeometry width="50" height="50" relative="1" as="geometry">
        <mxPoint x="40" y="1090" as="sourcePoint"/>
        <mxPoint x="90" y="1040" as="targetPoint"/>
      </mxGeometry>
    </mxCell>
    <mxCell id="6b0c9d97c6c02063-109" value="Code Dependencies" style="text;html=1;strokeColor=none;fillColor=none;align=center;verticalAlign=middle;whiteSpace=wrap;rounded=0;labelBackgroundColor=none;fontSize=14;fontStyle=1" parent="1" vertex="1">
      <mxGeometry x="30" y="990" width="120" height="20" as="geometry"/>
    </mxCell>
    <mxCell id="6b0c9d97c6c02063-110" value="Technology Stack" style="text;html=1;strokeColor=none;fillColor=none;align=center;verticalAlign=middle;whiteSpace=wrap;rounded=0;labelBackgroundColor=none;fontSize=16;fontStyle=1" parent="1" vertex="1">
      <mxGeometry x="430" y="990" width="350" height="30" as="geometry"/>
    </mxCell>
    <mxCell id="6b0c9d97c6c02063-111" value="Frontend Layer" style="rounded=0;whiteSpace=wrap;html=1;labelBackgroundColor=none;fillColor=#ffffff;fontSize=12;strokeColor=#000000;" parent="1" vertex="1">
      <mxGeometry x="440" y="1030" width="100" height="40" as="geometry"/>
    </mxCell>
    <mxCell id="6b0c9d97c6c02063-112" value="tkinter" style="text;html=1;strokeColor=none;fillColor=none;align=center;verticalAlign=middle;whiteSpace=wrap;rounded=0;labelBackgroundColor=none;fontSize=12;fontStyle=0" parent="1" vertex="1">
      <mxGeometry x="450" y="1040" width="80" height="20" as="geometry"/>
    </mxCell>
    <mxCell id="6b0c9d97c6c02063-113" value="tkcalendar" style="text;html=1;strokeColor=none;fillColor=none;align=center;verticalAlign=middle;whiteSpace=wrap;rounded=0;labelBackgroundColor=none;fontSize=12;fontStyle=0" parent="1" vertex="1">
      <mxGeometry x="450" y="1055" width="80" height="20" as="geometry"/>
    </mxCell>
    <mxCell id="6b0c9d97c6c02063-114" value="Backend Layer" style="rounded=0;whiteSpace=wrap;html=1;labelBackgroundColor=none;fillColor=#ffffff;fontSize=12;strokeColor=#000000;" parent="1" vertex="1">
      <mxGeometry x="550" y="1030" width="100" height="40" as="geometry"/>
    </mxCell>
    <mxCell id="6b0c9d97c6c02063-115" value="Python 3.x" style="text;html=1;strokeColor=none;fillColor=none;align=center;verticalAlign=middle;whiteSpace=wrap;rounded=0;labelBackgroundColor=none;fontSize=12;fontStyle=0" parent="1" vertex="1">
      <mxGeometry x="560" y="1040" width="80" height="20" as="geometry"/>
    </mxCell>
    <mxCell id="6b0c9d97c6c02063-116" value="pandas" style="text;html=1;strokeColor=none;fillColor=none;align=center;verticalAlign=middle;whiteSpace=wrap;rounded=0;labelBackgroundColor=none;fontSize=12;fontStyle=0" parent="1" vertex="1">
      <mxGeometry x="560" y="1055" width="80" height="20" as="geometry"/>
    </mxCell>
    <mxCell id="6b0c9d97c6c02063-117" value="reportlab" style="text;html=1;strokeColor=none;fillColor=none;align=center;verticalAlign=middle;whiteSpace=wrap;rounded=0;labelBackgroundColor=none;fontSize=12;fontStyle=0" parent="1" vertex="1">
      <mxGeometry x="560" y="1070" width="80" height="20" as="geometry"/>
    </mxCell>
    <mxCell id="6b0c9d97c6c02063-118" value="Database Layer" style="rounded=0;whiteSpace=wrap;html=1;labelBackgroundColor=none;fillColor=#ffffff;fontSize=12;strokeColor=#000000;" parent="1" vertex="1">
      <mxGeometry x="660" y="1030" width="100" height="40" as="geometry"/>
    </mxCell>
    <mxCell id="6b0c9d97c6c02063-119" value="Firebird SQL" style="text;html=1;strokeColor=none;fillColor=none;align=center;verticalAlign=middle;whiteSpace=wrap;rounded=0;labelBackgroundColor=none;fontSize=12;fontStyle=0" parent="1" vertex="1">
      <mxGeometry x="670" y="1040" width="80" height="20" as="geometry"/>
    </mxCell>
    <mxCell id="6b0c9d97c6c02063-120" value="ISQL" style="text;html=1;strokeColor=none;fillColor=none;align=center;verticalAlign=middle;whiteSpace=wrap;rounded=0;labelBackgroundColor=none;fontSize=12;fontStyle=0" parent="1" vertex="1">
      <mxGeometry x="670" y="1055" width="80" height="20" as="geometry"/>
    </mxCell>
    <mxCell id="6b0c9d97c6c02063-121" value="Windows Integration" style="rounded=0;whiteSpace=wrap;html=1;labelBackgroundColor=none;fillColor=#ffffff;fontSize=12;strokeColor=#000000;" parent="1" vertex="1">
      <mxGeometry x="770" y="1030" width="100" height="40" as="geometry"/>
    </mxCell>
    <mxCell id="6b0c9d97c6c02063-122" value="Windows OS" style="text;html=1;strokeColor=none;fillColor=none;align=center;verticalAlign=middle;whiteSpace=wrap;rounded=0;labelBackgroundColor=none;fontSize=12;fontStyle=0" parent="1" vertex="1">
      <mxGeometry x="780" y="1040" width="80" height="20" as="geometry"/>
    </mxCell>
    <mxCell id="6b0c9d97c6c02063-123" value="File System" style="text;html=1;strokeColor=none;fillColor=none;align=center;verticalAlign=middle;whiteSpace=wrap;rounded=0;labelBackgroundColor=none;fontSize=12;fontStyle=0" parent="1" vertex="1">
      <mxGeometry x="780" y="1055" width="80" height="20" as="geometry"/>
    </mxCell>
    <mxCell id="6b0c9d97c6c02063-124" value="Recommended Refactoring Architecture" style="text;html=1;strokeColor=none;fillColor=none;align=center;verticalAlign=middle;whiteSpace=wrap;rounded=0;labelBackgroundColor=none;fontSize=16;fontStyle=1" parent="1" vertex="1">
      <mxGeometry x="190" y="270" width="450" height="30" as="geometry"/>
    </mxCell>
    <mxCell id="6b0c9d97c6c02063-125" value="" style="rounded=0;whiteSpace=wrap;html=1;labelBackgroundColor=none;fillColor=#ffffff;fontSize=12;strokeColor=#000000;" parent="1" vertex="1">
      <mxGeometry x="210" y="300" width="120" height="30" as="geometry"/>
    </mxCell>
    <mxCell id="6b0c9d97c6c02063-126" value="Presentation Layer" style="text;html=1;strokeColor=none;fillColor=none;align=center;verticalAlign=middle;whiteSpace=wrap;rounded=0;labelBackgroundColor=none;fontSize=10;fontStyle=1" parent="1" vertex="1">
      <mxGeometry x="220" y="305" width="100" height="20" as="geometry"/>
    </mxCell>
    <mxCell id="6b0c9d97c6c02063-127" value="" style="rounded=0;whiteSpace=wrap;html=1;labelBackgroundColor=none;fillColor=#ffffff;fontSize=12;strokeColor=#000000;" parent="1" vertex="1">
      <mxGeometry x="340" y="300" width="120" height="30" as="geometry"/>
    </mxCell>
    <mxCell id="6b0c9d97c6c02063-128" value="Business Layer" style="text;html=1;strokeColor=none;fillColor=none;align=center;verticalAlign=middle;whiteSpace=wrap;rounded=0;labelBackgroundColor=none;fontSize=10;fontStyle=1" parent="1" vertex="1">
      <mxGeometry x="350" y="305" width="100" height="20" as="geometry"/>
    </mxCell>
    <mxCell id="6b0c9d97c6c02063-129" value="" style="rounded=0;whiteSpace=wrap;html=1;labelBackgroundColor=none;fillColor=#ffffff;fontSize=12;strokeColor=#000000;" parent="1" vertex="1">
      <mxGeometry x="470" y="300" width="120" height="30" as="geometry"/>
    </mxCell>
    <mxCell id="6b0c9d97c6c02063-130" value="Data Access Layer" style="text;html=1;strokeColor=none;fillColor=none;align=center;verticalAlign=middle;whiteSpace=wrap;rounded=0;labelBackgroundColor=none;fontSize=10;fontStyle=1" parent="1" vertex="1">
      <mxGeometry x="480" y="305" width="100" height="20" as="geometry"/>
    </mxCell>
    <mxCell id="6b0c9d97c6c02063-131" value="" style="rounded=0;whiteSpace=wrap;html=1;labelBackgroundColor=none;fillColor=#ffffff;fontSize=12;strokeColor=#000000;" parent="1" vertex="1">
      <mxGeometry x="590" y="300" width="120" height="30" as="geometry"/>
    </mxCell>
    <mxCell id="6b0c9d97c6c02063-132" value="Infrastructure Layer" style="text;html=1;strokeColor=none;fillColor=none;align=center;verticalAlign=middle;whiteSpace=wrap;rounded=0;labelBackgroundColor=none;fontSize=10;fontStyle=1" parent="1" vertex="1">
      <mxGeometry x="600" y="305" width="100" height="20" as="geometry"/>
    </mxCell>
  </root>
</mxGraphModel>